<svg width="321" height="350" viewBox="0 0 321 350" fill="none" xmlns="http://www.w3.org/2000/svg">
<path d="M115.772 226.101C123.493 143.802 179.487 42.2557 204.752 0C177.43 1.54864 151.346 6.19455 127.232 13.4068C108.338 57.1005 76.9454 142.43 69.6225 182.43C62.1227 223.38 73.5162 263.578 92.0778 290.37C115.661 324.44 148.47 339.152 175.881 345.28C175.925 345.28 175.948 345.28 175.97 345.28C191.854 347.514 208.27 348.687 225.084 348.687C225.858 348.687 226.61 348.687 227.362 348.687C223.823 348.2 105.905 331.276 115.772 226.101Z" fill="#D99F59"/>
<path d="M49.7781 231.765C45.5304 163.603 73.4059 76.4142 92.2329 26.3268C63.0079 39.2468 37.8978 56.3261 18.5841 76.3921C9.51346 119.201 0.730464 170.085 0.0446387 197.606C0.0225153 198.624 0.000416206 199.642 0.000416206 200.637C-0.110201 242.096 21.8362 280.348 56.7027 302.781C86.9233 322.227 124.024 336.497 165.129 343.621C131.701 336.386 54.7337 311.21 49.7781 231.765Z" fill="#D99F59"/>
<path d="M189.443 225.305C197.363 196.434 211.876 166.191 228.734 137.563C260.548 83.4938 300.657 35.1763 320.281 12.721C298.025 6.21673 274.153 1.92479 249.198 0.243408C226.256 30.7958 158.448 142.099 143.935 188.049C134.068 219.287 132.962 255.238 146.546 285.038C152.43 297.98 160.329 308.268 169.355 316.453C169.355 316.453 214.221 361.718 284.795 345.855C286.211 345.59 287.162 345.103 287.627 344.926C275.326 343.112 162.474 323.71 189.465 225.327L189.443 225.305Z" fill="#D99F59"/>
</svg>
